<svg width="620" height="949" viewBox="0 0 620 949" fill="none" xmlns="http://www.w3.org/2000/svg">
<mask id="path-1-outside-1_135_700" maskUnits="userSpaceOnUse" x="0" y="-0.000244141" width="620" height="949" fill="black">
<rect fill="white" y="-0.000244141" width="620" height="949"/>
<path d="M384.064 294.659C357.439 25.0449 582.268 -24.5518 596.329 25.0437C610.39 74.6393 584.162 188.681 498.545 353.961C478.517 392.623 457.972 428.846 437.846 461.447C524.16 500.191 582.57 574.603 582.57 660.039C582.57 694.87 572.857 727.866 555.508 757.363C591.063 776.327 612 799.577 612 824.702C612 888.554 476.79 940.317 310 940.317C143.21 940.317 8 888.554 8 824.702C8.00016 802.658 24.1156 782.057 52.0811 764.527C31.9768 733.25 20.6123 697.718 20.6123 660.039C20.6123 570.305 85.0472 492.733 178.571 455.875C176.903 448.947 175.279 441.99 173.711 435.025C165.36 397.935 158.779 360.373 154.213 325.506C115.29 390.76 60.4052 429.016 29.1895 411.568C-3.23868 393.442 2.15747 322.064 41.2422 252.14C80.3271 182.217 138.3 140.226 170.729 158.352C181.488 164.367 188.082 176.245 190.664 191.987C214.166 233.607 242.137 317.182 263.543 415.459C264.746 420.984 265.908 426.477 267.034 431.93C292.836 409.1 318.347 397.276 325.992 405.25C328.799 408.178 328.834 413.4 326.575 420.067C346.813 405.292 364.658 398.807 370.836 405.25C375.873 410.504 371.994 423.147 361.924 438.261C367.708 439.284 373.426 440.45 379.07 441.756C386.941 402.265 389.919 353.942 384.064 294.659Z"/>
</mask>
<path d="M384.064 294.659C357.439 25.0449 582.268 -24.5518 596.329 25.0437C610.39 74.6393 584.162 188.681 498.545 353.961C478.517 392.623 457.972 428.846 437.846 461.447C524.16 500.191 582.57 574.603 582.57 660.039C582.57 694.87 572.857 727.866 555.508 757.363C591.063 776.327 612 799.577 612 824.702C612 888.554 476.79 940.317 310 940.317C143.21 940.317 8 888.554 8 824.702C8.00016 802.658 24.1156 782.057 52.0811 764.527C31.9768 733.25 20.6123 697.718 20.6123 660.039C20.6123 570.305 85.0472 492.733 178.571 455.875C176.903 448.947 175.279 441.99 173.711 435.025C165.36 397.935 158.779 360.373 154.213 325.506C115.29 390.76 60.4052 429.016 29.1895 411.568C-3.23868 393.442 2.15747 322.064 41.2422 252.14C80.3271 182.217 138.3 140.226 170.729 158.352C181.488 164.367 188.082 176.245 190.664 191.987C214.166 233.607 242.137 317.182 263.543 415.459C264.746 420.984 265.908 426.477 267.034 431.93C292.836 409.1 318.347 397.276 325.992 405.25C328.799 408.178 328.834 413.4 326.575 420.067C346.813 405.292 364.658 398.807 370.836 405.25C375.873 410.504 371.994 423.147 361.924 438.261C367.708 439.284 373.426 440.45 379.07 441.756C386.941 402.265 389.919 353.942 384.064 294.659Z" fill="#EAD7C6"/>
<path d="M384.064 294.659L392.026 293.873V293.873L384.064 294.659ZM596.329 25.0437L604.026 22.8616V22.8616L596.329 25.0437ZM498.545 353.961L505.648 357.64V357.64L498.545 353.961ZM437.846 461.447L431.038 457.245L426.245 465.009L434.57 468.745L437.846 461.447ZM582.57 660.039H590.57V660.039H582.57ZM555.508 757.363L548.612 753.307L544.384 760.497L551.743 764.422L555.508 757.363ZM612 824.702H620V824.702L612 824.702ZM310 940.317V948.317V940.317ZM8 824.702L0 824.702V824.702H8ZM52.0811 764.527L56.3299 771.306L63.1859 767.008L58.8107 760.201L52.0811 764.527ZM20.6123 660.039H12.6123V660.039H20.6123ZM178.571 455.875L181.505 463.318L187.978 460.767L186.349 454.002L178.571 455.875ZM173.711 435.025L165.906 436.782V436.782L173.711 435.025ZM154.213 325.506L162.145 324.467L159.152 301.609L147.342 321.407L154.213 325.506ZM29.1895 411.568L25.2861 418.551L25.2862 418.551L29.1895 411.568ZM41.2422 252.14L34.2591 248.237L34.2591 248.237L41.2422 252.14ZM170.729 158.352L174.632 151.369L174.632 151.369L170.729 158.352ZM190.664 191.987L182.77 193.282L183 194.684L183.698 195.921L190.664 191.987ZM263.543 415.459L271.36 413.756V413.756L263.543 415.459ZM267.034 431.93L259.2 433.549L261.993 447.073L272.336 437.922L267.034 431.93ZM325.992 405.25L331.767 399.714L331.767 399.713L325.992 405.25ZM326.575 420.067L318.998 417.5L310.892 441.422L331.292 426.528L326.575 420.067ZM370.836 405.25L376.611 399.713L376.61 399.713L370.836 405.25ZM361.924 438.261L355.266 433.826L348.482 444.009L360.531 446.139L361.924 438.261ZM379.07 441.756L377.268 449.55L385.304 451.409L386.916 443.319L379.07 441.756ZM384.064 294.659L392.026 293.873C378.963 161.597 427.533 84.6747 479.657 46.6083C505.926 27.4241 533.137 18.0584 554.151 16.3058C564.697 15.4263 573.233 16.4986 579.206 18.7972C585.136 21.0795 587.774 24.1994 588.632 27.2258L596.329 25.0437L604.026 22.8616C601.369 13.4891 593.905 7.30992 584.952 3.86478C576.043 0.435996 564.915 -0.647397 552.822 0.361162C528.558 2.38469 498.589 12.9699 470.221 33.6872C413.071 75.4237 362.54 158.107 376.103 295.445L384.064 294.659ZM596.329 25.0437L588.632 27.2258C595.03 49.7915 592.533 88.8834 577.113 143.964C561.798 198.665 534.077 267.976 491.441 350.281L498.545 353.961L505.648 357.64C548.63 274.666 576.831 204.316 592.52 148.278C608.103 92.6184 611.689 49.8916 604.026 22.8616L596.329 25.0437ZM498.545 353.961L491.441 350.281C471.501 388.775 451.054 424.823 431.038 457.245L437.846 461.447L444.653 465.65C464.89 432.87 485.533 396.471 505.648 357.64L498.545 353.961ZM437.846 461.447L434.57 468.745C518.804 506.555 574.57 578.54 574.57 660.039H582.57H590.57C590.57 570.665 529.517 493.826 441.122 454.149L437.846 461.447ZM582.57 660.039H574.57C574.57 693.344 565.291 724.95 548.612 753.307L555.508 757.363L562.403 761.419C580.423 730.782 590.57 696.396 590.57 660.039H582.57ZM555.508 757.363L551.743 764.422C586.768 783.103 604 804.309 604 824.702L612 824.702L620 824.702C620 794.845 595.359 769.551 559.273 750.304L555.508 757.363ZM612 824.702H604C604 837.621 597.191 850.837 582.899 863.773C568.606 876.71 547.476 888.727 520.686 898.983C467.16 919.474 392.673 932.317 310 932.317V940.317V948.317C394.117 948.317 470.63 935.278 526.406 913.925C554.267 903.259 577.364 890.363 593.636 875.636C609.907 860.908 620 843.709 620 824.702H612ZM310 940.317V932.317C227.327 932.317 152.84 919.474 99.314 898.983C72.5237 888.727 51.3938 876.71 37.1011 863.773C22.8087 850.837 16 837.621 16 824.702H8H0C0 843.709 10.0925 860.908 26.3642 875.636C42.6356 890.363 65.7325 903.259 93.5935 913.925C149.37 935.278 225.883 948.317 310 948.317V940.317ZM8 824.702L16 824.702C16.0001 806.853 29.1385 788.35 56.3299 771.306L52.0811 764.527L47.8322 757.749C19.0927 775.763 0.000195503 798.464 0 824.702L8 824.702ZM52.0811 764.527L58.8107 760.201C39.467 730.108 28.6123 696.061 28.6123 660.039H20.6123H12.6123C12.6123 699.374 24.4865 736.393 45.3514 768.853L52.0811 764.527ZM20.6123 660.039H28.6123C28.6123 574.453 90.1479 499.321 181.505 463.318L178.571 455.875L175.638 448.432C79.9466 486.144 12.6123 566.157 12.6123 660.039H20.6123ZM178.571 455.875L186.349 454.002C184.69 447.11 183.075 440.192 181.516 433.268L173.711 435.025L165.906 436.782C167.484 443.789 169.117 450.783 170.794 457.747L178.571 455.875ZM173.711 435.025L181.516 433.268C173.219 396.419 166.68 359.097 162.145 324.467L154.213 325.506L146.281 326.544C150.878 361.65 157.501 399.451 165.906 436.782L173.711 435.025ZM154.213 325.506L147.342 321.407C128.319 353.299 105.595 378.228 84.2629 392.969C62.4045 408.073 44.5016 410.962 33.0927 404.585L29.1895 411.568L25.2862 418.551C45.093 429.622 70.2402 422.107 93.3588 406.132C117.003 389.793 141.183 362.966 161.083 329.604L154.213 325.506ZM29.1895 411.568L33.0928 404.585C21.2265 397.952 14.2452 380.064 16.3757 351.881C18.4509 324.431 29.1187 290.226 48.2253 256.044L41.2422 252.14L34.2591 248.237C14.2809 283.978 2.70828 320.423 0.421264 350.675C-1.81037 380.194 4.72429 407.058 25.2861 418.551L29.1895 411.568ZM41.2422 252.14L48.2253 256.044C67.332 221.862 90.8797 194.855 113.174 178.707C136.064 162.128 154.959 158.703 166.825 165.335L170.729 158.352L174.632 151.369C154.07 139.876 127.764 148.383 103.789 165.749C79.2187 183.545 54.2373 212.496 34.2591 248.237L41.2422 252.14ZM170.729 158.352L166.825 165.335C174.665 169.718 180.407 178.878 182.77 193.282L190.664 191.987L198.559 190.692C195.757 173.613 188.312 159.016 174.632 151.369L170.729 158.352ZM190.664 191.987L183.698 195.921C206.596 236.472 234.367 319.096 255.726 417.161L263.543 415.459L271.36 413.756C249.908 315.268 221.736 230.742 197.63 188.053L190.664 191.987ZM263.543 415.459L255.726 417.161C256.923 422.655 258.078 428.12 259.2 433.549L267.034 431.93L274.869 430.312C273.737 424.834 272.57 419.313 271.36 413.756L263.543 415.459ZM267.034 431.93L272.336 437.922C284.846 426.852 297.014 418.706 306.64 414.318C311.493 412.106 315.276 411.045 317.891 410.813C320.613 410.571 320.705 411.295 320.218 410.786L325.992 405.25L331.767 399.713C327.457 395.218 321.493 394.43 316.475 394.876C311.35 395.331 305.71 397.158 300.004 399.759C288.513 404.997 275.024 414.178 261.733 425.939L267.034 431.93ZM325.992 405.25L320.217 410.786C319.873 410.427 320.152 410.35 320.187 411.503C320.225 412.721 319.949 414.693 318.998 417.5L326.575 420.067L334.152 422.635C335.46 418.774 336.297 414.802 336.18 411.01C336.061 407.153 334.918 403.001 331.767 399.714L325.992 405.25ZM326.575 420.067L331.292 426.528C341.051 419.404 349.845 414.577 356.574 412.269C359.956 411.109 362.403 410.73 363.972 410.767C365.502 410.803 365.447 411.189 365.062 410.787L370.836 405.25L376.61 399.713C373.135 396.089 368.534 394.87 364.348 394.771C360.2 394.674 355.763 395.632 351.382 397.135C342.584 400.152 332.337 405.956 321.858 413.606L326.575 420.067ZM370.836 405.25L365.061 410.786C364.463 410.162 365.775 410.783 364.342 415.9C363.059 420.479 360.063 426.627 355.266 433.826L361.924 438.261L368.582 442.697C373.855 434.782 377.834 427.051 379.748 420.217C381.513 413.919 382.247 405.592 376.611 399.713L370.836 405.25ZM361.924 438.261L360.531 446.139C366.179 447.138 371.76 448.276 377.268 449.55L379.07 441.756L380.873 433.961C375.092 432.624 369.237 431.43 363.317 430.384L361.924 438.261ZM379.07 441.756L386.916 443.319C394.958 402.969 397.949 353.848 392.026 293.873L384.064 294.659L376.103 295.445C381.889 354.036 378.924 401.56 371.225 440.192L379.07 441.756Z" fill="#401B03" mask="url(#path-1-outside-1_135_700)"/>
<path d="M529.853 231.374C512.871 258.862 443.022 380.824 416.376 366.985C389.73 353.147 433.892 266.973 433.358 181.26C432.825 95.5475 508.297 49.0863 546.835 45.6487C585.373 42.2111 546.835 203.886 529.853 231.374Z" fill="#D37553"/>
<path d="M220.033 355.961C230.817 387.892 230.345 416.889 218.979 420.727C207.613 424.566 189.657 401.792 178.874 369.861C168.09 337.93 142.734 316.264 179.928 305.095C217.121 293.927 209.249 324.03 220.033 355.961Z" fill="#D37553"/>
<path d="M209.801 534.413C223.891 534.413 236.717 543.29 246.045 557.785C255.369 572.275 261.152 592.323 261.152 614.493C261.152 636.663 255.369 656.711 246.045 671.201C236.717 685.697 223.891 694.573 209.801 694.573C195.71 694.573 182.884 685.697 173.556 671.201C164.232 656.711 158.449 636.663 158.449 614.493C158.449 592.323 164.232 572.275 173.556 557.785C182.884 543.29 195.71 534.413 209.801 534.413Z" fill="#401B03" stroke="#401B03"/>
<path d="M226.617 568.047C230.647 568.047 234.364 570.572 237.097 574.796C239.827 579.015 241.533 584.873 241.533 591.37C241.533 597.867 239.827 603.725 237.097 607.944C234.364 612.168 230.648 614.694 226.617 614.694C222.586 614.694 218.87 612.168 216.136 607.944C213.407 603.725 211.702 597.866 211.702 591.37C211.702 584.873 213.407 579.015 216.136 574.796C218.87 570.572 222.587 568.047 226.617 568.047Z" fill="white" stroke="#401B03"/>
<path d="M410.199 534.413C424.29 534.413 437.116 543.29 446.444 557.785C455.768 572.275 461.551 592.323 461.551 614.493C461.551 636.663 455.768 656.711 446.444 671.201C437.116 685.697 424.29 694.573 410.199 694.573C396.109 694.573 383.283 685.697 373.955 671.201C364.631 656.711 358.848 636.663 358.848 614.493C358.848 592.323 364.631 572.275 373.955 557.785C383.283 543.29 396.109 534.413 410.199 534.413Z" fill="#401B03" stroke="#401B03"/>
<path d="M395.485 568.047C399.72 568.047 403.611 570.584 406.467 574.804C409.32 579.022 411.101 584.878 411.101 591.37C411.101 597.862 409.32 603.718 406.467 607.936C403.611 612.157 399.72 614.694 395.485 614.694C391.251 614.694 387.359 612.157 384.504 607.936C381.65 603.718 379.869 597.862 379.869 591.37C379.869 584.878 381.65 579.022 384.504 574.804C387.359 570.584 391.251 568.047 395.485 568.047Z" fill="white" stroke="#401B03"/>
<path d="M309.447 789.207C311.103 789.208 312.447 790.551 312.447 792.207V836.059C312.447 837.716 311.103 839.059 309.447 839.059H289.49C287.882 839.059 286.56 837.79 286.493 836.182L285.155 803.695C285.094 802.233 286.098 800.94 287.53 800.636L294.52 799.152C295.458 798.952 296.319 798.487 297 797.812L305.682 789.207H309.447Z" fill="white" stroke="#401B03" stroke-width="2" stroke-linecap="round"/>
<path d="M318.847 789.207C317.19 789.208 315.847 790.551 315.847 792.207V836.059C315.847 837.716 317.19 839.059 318.847 839.059H338.803C340.412 839.059 341.734 837.79 341.8 836.182L343.139 803.695C343.199 802.233 342.195 800.94 340.764 800.636L333.774 799.152C332.835 798.952 331.974 798.487 331.293 797.812L322.612 789.207H318.847Z" fill="white" stroke="#401B03" stroke-width="2" stroke-linecap="round"/>
<path fill-rule="evenodd" clip-rule="evenodd" d="M314.705 785.546C336.166 799.623 353.283 806.548 371.058 806.515C388.905 806.482 407.5 799.436 431.908 785.383L432.406 786.251C407.955 800.328 389.174 807.481 371.06 807.515C353.015 807.549 335.715 800.516 314.212 786.419C292.341 801.647 274.495 808.851 255.548 808.619C236.54 808.385 216.506 800.668 190.278 786.256L190.76 785.379C216.958 799.775 236.81 807.389 255.56 807.619C274.23 807.848 291.888 800.755 313.705 785.554V739.128H314.705V785.546Z" fill="#401B03"/>
<path d="M314.705 785.546H312.205C312.205 786.388 312.629 787.174 313.333 787.636L314.705 785.546ZM371.058 806.515L371.063 809.015H371.063L371.058 806.515ZM431.908 785.383L434.076 784.138C433.745 783.563 433.2 783.143 432.559 782.97C431.918 782.797 431.235 782.886 430.66 783.217L431.908 785.383ZM432.406 786.251L433.653 788.417C434.849 787.729 435.261 786.202 434.574 785.006L432.406 786.251ZM371.06 807.515L371.065 810.015H371.065L371.06 807.515ZM314.212 786.419L315.583 784.328C314.73 783.768 313.622 783.784 312.784 784.367L314.212 786.419ZM255.548 808.619L255.518 811.119H255.518L255.548 808.619ZM190.278 786.256L188.087 785.051C187.768 785.632 187.692 786.316 187.877 786.953C188.062 787.59 188.493 788.127 189.074 788.447L190.278 786.256ZM190.76 785.379L191.964 783.188C190.755 782.523 189.235 782.964 188.57 784.174L190.76 785.379ZM255.56 807.619L255.529 810.119H255.529L255.56 807.619ZM313.705 785.554L315.134 787.606C315.805 787.138 316.205 786.372 316.205 785.554H313.705ZM313.705 739.128V736.628C312.324 736.628 311.205 737.747 311.205 739.128H313.705ZM314.705 739.128H317.205C317.205 737.747 316.085 736.628 314.705 736.628V739.128ZM314.705 785.546L313.333 787.636C334.963 801.825 352.574 809.05 371.063 809.015L371.058 806.515L371.053 804.015C353.991 804.047 337.368 797.422 316.076 783.455L314.705 785.546ZM371.058 806.515L371.063 809.015C389.577 808.981 408.639 801.665 433.155 787.55L431.908 785.383L430.66 783.217C406.361 797.207 388.233 803.983 371.053 804.015L371.058 806.515ZM431.908 785.383L429.74 786.629L430.238 787.496L432.406 786.251L434.574 785.006L434.076 784.138L431.908 785.383ZM432.406 786.251L431.158 784.084C406.816 798.099 388.502 804.983 371.055 805.015L371.06 807.515L371.065 810.015C389.846 809.98 409.094 802.557 433.653 788.417L432.406 786.251ZM371.06 807.515L371.055 805.015C353.723 805.048 336.917 798.315 315.583 784.328L314.212 786.419L312.842 788.509C334.514 802.718 352.307 810.05 371.065 810.015L371.06 807.515ZM314.212 786.419L312.784 784.367C291.121 799.45 273.789 806.342 255.579 806.119L255.548 808.619L255.518 811.119C275.201 811.36 293.561 803.844 315.641 788.47L314.212 786.419ZM255.548 808.619L255.579 806.119C237.216 805.894 217.635 798.436 191.482 784.065L190.278 786.256L189.074 788.447C215.376 802.9 235.865 810.877 255.518 811.119L255.548 808.619ZM190.278 786.256L192.468 787.461L192.951 786.584L190.76 785.379L188.57 784.174L188.087 785.051L190.278 786.256ZM190.76 785.379L189.556 787.57C215.828 802.006 236.135 809.88 255.529 810.119L255.56 807.619L255.591 805.119C237.486 804.897 218.088 797.543 191.964 783.188L190.76 785.379ZM255.56 807.619L255.529 810.119C274.937 810.357 293.109 802.951 315.134 787.606L313.705 785.554L312.275 783.503C290.667 798.558 273.524 805.339 255.591 805.119L255.56 807.619ZM313.705 785.554H316.205V739.128H313.705H311.205V785.554H313.705ZM313.705 739.128V741.628H314.705V739.128V736.628H313.705V739.128ZM314.705 739.128H312.205V785.546H314.705H317.205V739.128H314.705Z" fill="#401B03"/>
<path d="M323.659 755.704C319.059 761.201 310.606 761.196 306.012 755.694L279.578 724.036C273.324 716.545 278.654 705.16 288.412 705.166L341.313 705.194C351.071 705.199 356.389 716.59 350.127 724.073L323.659 755.704Z" fill="#401B03" stroke="#401B03"/>
<circle cx="498.443" cy="744.443" r="43.4432" fill="#D37553"/>
<circle cx="132.443" cy="744.443" r="43.4432" fill="#D37553"/>
</svg>
